External Loads File
version=1
nRows=86
nColumns=13
Range=5.000000e-03-10 seconds
endheader
time 	forceRightX 	forceRightY 	forceRightZ 	pointRightX 	pointRightY 	pointRightZ 	forceLeftX 	forceLeftY 	forceLeftZ 	pointLeftX 	pointLeftY 	pointLeftZ 		
5.005000 119.555833 96.400870 -0.000000 0.182444 0.165662 -0.098275 -29.961137 157.571731 -0.000000 0.337334 0.473862 -0.341323
5.010000 112.204012 53.131651 -0.000000 0.173459 0.171021 -0.098172 -37.202850 158.169764 -0.000000 0.344320 0.469432 -0.341671
5.015000 104.859148 15.054265 -0.000000 0.165068 0.176960 -0.098442 -45.002971 159.418965 -0.000000 0.351066 0.463985 -0.342221
5.020000 96.895884 -17.419528 -0.000000 0.157171 0.183297 -0.098356 -53.471449 161.557598 -0.000000 0.357466 0.458053 -0.342504
5.025000 88.038866 -43.757523 -0.000000 0.150010 0.190255 -0.097962 -62.650959 164.779465 -0.000000 0.363387 0.451612 -0.342686
5.030000 78.216082 -63.640161 -0.000000 0.142608 0.197512 -0.098667 -72.130818 169.447126 -0.000000 0.368933 0.444525 -0.342895
5.035000 68.142761 -76.372194 -0.000000 0.136662 0.205113 -0.098615 -82.695372 175.488743 -0.000000 0.373792 0.437085 -0.343145
5.040000 58.314316 -82.347248 -0.000000 0.131230 0.212917 -0.098672 -93.646995 183.529325 -0.000000 0.378330 0.428866 -0.343337
5.045000 49.529068 -82.134219 -0.000000 0.126081 0.221068 -0.099032 -104.815409 194.038850 -0.000000 0.382495 0.420206 -0.343313
5.050000 42.588501 -76.752674 -0.000000 0.121807 0.229679 -0.099094 -116.146464 207.395616 -0.000000 0.386124 0.410942 -0.343474
5.055000 37.868678 -67.665606 -0.000000 0.117747 0.238818 -0.099206 -127.040154 224.186367 -0.000000 0.389333 0.401027 -0.343764
5.060000 35.728735 -56.246919 -0.000000 0.114133 0.248245 -0.099395 -137.726213 244.393825 -0.000000 0.392048 0.390841 -0.344020
5.065000 35.983004 -43.849467 -0.000000 0.111118 0.258028 -0.099562 -147.759183 268.277316 -0.000000 0.394233 0.380048 -0.344182
5.070000 38.362788 -31.400265 -0.000000 0.108594 0.268009 -0.099823 -157.726140 295.534821 -0.000000 0.395917 0.369528 -0.344415
5.075000 42.213403 -19.662225 -0.000000 0.106648 0.278169 -0.100099 -167.189485 326.545973 -0.000000 0.397118 0.358720 -0.344545
5.080000 46.907949 -9.059967 -0.000000 0.105513 0.288468 -0.100280 -176.336173 361.350545 -0.000000 0.397719 0.347818 -0.344557
5.085000 51.807859 0.057865 -0.000000 0.104926 0.298881 -0.100479 -184.426769 400.075906 -0.000000 0.397895 0.336716 -0.344735
5.090000 56.358126 7.549267 -0.000000 0.105050 0.309363 -0.100632 -190.993352 442.144533 -0.000000 0.397514 0.325652 -0.344944
5.095000 60.100673 13.335655 -0.000000 0.105885 0.319926 -0.100784 -194.914137 486.993911 -0.000000 0.396585 0.314534 -0.344592
5.100000 62.710708 17.585587 -0.000000 0.107317 0.330406 -0.100940 -196.195687 533.675428 -0.000000 0.395292 0.303604 -0.344387
5.105000 64.056333 20.444615 -0.000000 0.109390 0.340845 -0.101106 -194.239428 581.719863 -0.000000 0.393321 0.292764 -0.344312
5.110000 64.156734 22.072672 -0.000000 0.112089 0.351420 -0.101245 -188.439412 630.799117 -0.000000 0.390807 0.282009 -0.344292
5.115000 63.066468 22.778286 -0.000000 0.115430 0.361716 -0.101456 -179.707827 680.185310 -0.000000 0.387772 0.271450 -0.344140
5.120000 60.952263 22.699821 -0.000000 0.119467 0.371992 -0.101685 -167.147836 729.639268 -0.000000 0.384264 0.261037 -0.343936
5.125000 57.955948 22.169153 -0.000000 0.123836 0.382146 -0.101953 -151.580796 778.367022 -0.000000 0.380170 0.251009 -0.343757
5.130000 54.269365 21.470272 -0.000000 0.128718 0.391934 -0.102103 -133.240725 825.760851 -0.000000 0.375551 0.241278 -0.343575
5.135000 50.118115 20.848803 -0.000000 0.134177 0.401547 -0.102290 -111.882208 871.404253 -0.000000 0.370478 0.231909 -0.343461
5.140000 45.715448 20.556081 -0.000000 0.140133 0.410881 -0.102592 -87.518435 914.962016 -0.000000 0.365014 0.222648 -0.343437
5.145000 41.223579 20.874648 -0.000000 0.146580 0.420007 -0.102838 -60.804088 956.099665 -0.000000 0.359100 0.213807 -0.343357
5.150000 36.764328 22.134557 -0.000000 0.153398 0.428758 -0.103156 -32.755517 994.454625 -0.000000 0.352799 0.205444 -0.343181
5.155000 32.500463 24.685349 -0.000000 0.160608 0.437134 -0.103487 -3.262466 1029.625171 -0.000000 0.346161 0.197436 -0.343167
5.160000 28.660169 28.923183 -0.000000 0.168154 0.445204 -0.103872 27.785448 1061.029607 -0.000000 0.339158 0.189699 -0.343298
5.165000 25.468798 35.255523 -0.000000 0.176013 0.452678 -0.104313 58.605957 1088.047017 -0.000000 0.331834 0.182665 -0.343143
5.170000 23.189430 43.927011 -0.000000 0.184149 0.459797 -0.104711 89.408908 1110.045419 -0.000000 0.324297 0.176118 -0.342982
5.175000 22.010459 55.066998 -0.000000 0.192583 0.466567 -0.104515 119.757716 1126.445023 -0.000000 0.316561 0.170062 -0.342794
5.180000 21.882732 68.685290 -0.000000 0.200893 0.472307 -0.105191 147.027437 1136.957015 -0.000000 0.308598 0.164542 -0.342636
5.185000 22.989643 84.475628 -0.000000 0.210060 0.477645 -0.104630 175.322507 1140.441304 -0.000000 0.300401 0.159385 -0.342517
5.190000 24.803557 102.121288 -0.000000 0.218821 0.482404 -0.105658 199.362186 1137.039847 -0.000000 0.292044 0.154870 -0.342391
5.195000 27.183966 120.973717 -0.000000 0.227792 0.486612 -0.105852 220.988389 1126.069378 -0.000000 0.283570 0.150920 -0.342346
5.200000 29.784055 140.238967 -0.000000 0.236769 0.490291 -0.106230 239.626524 1107.381618 -0.000000 0.274918 0.147459 -0.342399
5.205000 32.228800 158.989855 -0.000000 0.245790 0.493227 -0.106567 255.120712 1080.961417 -0.000000 0.266129 0.144436 -0.342449
5.210000 34.192399 176.356917 -0.000000 0.254831 0.495689 -0.106775 267.743591 1046.837912 -0.000000 0.257109 0.142154 -0.342590
5.215000 35.501628 191.740554 -0.000000 0.264161 0.497386 -0.106664 277.954682 1005.049530 -0.000000 0.247992 0.140529 -0.342744
5.220000 35.586201 204.976397 -0.000000 0.272952 0.498326 -0.106870 283.477648 956.498334 -0.000000 0.238844 0.139720 -0.342876
5.225000 34.732636 216.022703 -0.000000 0.281626 0.498361 -0.106868 286.116865 901.139754 -0.000000 0.229601 0.139625 -0.343072
5.230000 33.038822 225.094907 -0.000000 0.290282 0.497838 -0.106888 286.092154 839.541845 -0.000000 0.220320 0.140197 -0.343304
5.235000 30.605807 232.625458 -0.000000 0.298729 0.496566 -0.106743 283.364702 772.609389 -0.000000 0.211021 0.141713 -0.343487
5.240000 27.516107 239.252625 -0.000000 0.306837 0.494552 -0.106438 277.753734 701.596800 -0.000000 0.201823 0.144054 -0.343469
5.245000 24.101048 245.712203 -0.000000 0.314676 0.491795 -0.105995 269.918452 627.710494 -0.000000 0.192646 0.147091 -0.343419
5.250000 20.717987 252.759790 -0.000000 0.322524 0.488339 -0.106128 260.536734 552.283315 -0.000000 0.183594 0.150978 -0.343231
5.255000 17.064383 261.107376 -0.000000 0.329848 0.484144 -0.105658 248.949129 477.334046 -0.000000 0.174809 0.155533 -0.342999
5.260000 13.433193 271.227533 -0.000000 0.336893 0.479336 -0.105286 236.065646 404.140978 -0.000000 0.166247 0.160915 -0.342750
5.265000 9.606531 283.391429 -0.000000 0.343574 0.473935 -0.104978 221.941502 334.320868 -0.000000 0.157971 0.166748 -0.342441
5.270000 5.586410 297.590396 -0.000000 0.350001 0.467850 -0.104639 207.101107 269.105017 -0.000000 0.150052 0.173114 -0.342191
5.275000 1.125868 313.569406 -0.000000 0.356112 0.461171 -0.104283 191.790627 209.727654 -0.000000 0.142550 0.180037 -0.341917
5.280000 -4.042315 330.881721 -0.000000 0.361919 0.453814 -0.103849 176.295221 157.206512 -0.000000 0.135547 0.187312 -0.341657
5.285000 -9.945096 348.991721 -0.000000 0.367524 0.445914 -0.103537 160.994601 112.193609 -0.000000 0.128626 0.194596 -0.340431
5.290000 -16.827930 367.362849 -0.000000 0.372739 0.437036 -0.103204 146.163956 75.154120 -0.000000 0.122764 0.202256 -0.340269
5.295000 -24.881915 385.526387 -0.000000 0.377669 0.428294 -0.102921 132.177721 46.092817 -0.000000 0.117475 0.210324 -0.340145
5.300000 -33.788920 403.159914 -0.000000 0.382148 0.419151 -0.102667 119.442058 24.407926 -0.000000 0.112725 0.218495 -0.339995
5.305000 -43.070124 420.087036 -0.000000 0.386292 0.409800 -0.102500 108.250489 9.173292 -0.000000 0.108537 0.226991 -0.339841
5.310000 -52.425168 436.218214 -0.000000 0.389958 0.400133 -0.102382 98.835365 -0.641280 -0.000000 0.104907 0.235629 -0.339739
5.315000 -61.038945 451.617779 -0.000000 0.393184 0.390158 -0.102225 91.367081 -6.230109 -0.000000 0.101839 0.244667 -0.339715
5.320000 -69.085321 466.306728 -0.000000 0.395997 0.380006 -0.102085 85.891300 -8.538910 -0.000000 0.099310 0.253694 -0.339620
5.325000 -75.571510 480.501623 -0.000000 0.398350 0.369609 -0.102123 82.262149 -8.650246 -0.000000 0.097341 0.263129 -0.339609
5.330000 -80.553966 494.237588 -0.000000 0.400590 0.359049 -0.102086 80.168982 -7.289245 -0.000000 0.095920 0.272640 -0.339523
5.335000 -84.313855 507.405962 -0.000000 0.401819 0.348326 -0.101880 79.174362 -4.981386 -0.000000 0.095117 0.282160 -0.339614
5.340000 -85.575572 520.070290 -0.000000 0.402803 0.337601 -0.101588 78.805690 -2.333499 -0.000000 0.094891 0.292334 -0.339572
5.345000 -86.140076 531.803442 -0.000000 0.403247 0.326892 -0.101846 78.703406 0.641900 -0.000000 0.095206 0.302150 -0.339687
5.350000 -85.793015 542.636711 -0.000000 0.403262 0.316250 -0.101332 78.623010 3.697156 -0.000000 0.096193 0.311854 -0.339831
5.355000 -84.289148 552.778104 -0.000000 0.402521 0.305657 -0.101933 78.457276 6.643119 -0.000000 0.097693 0.321599 -0.339976
5.360000 -81.910091 562.560151 -0.000000 0.401431 0.295161 -0.101898 78.180745 9.386933 -0.000000 0.099788 0.331312 -0.340064
5.365000 -78.520522 572.596510 -0.000000 0.399648 0.284695 -0.101810 77.800234 11.749026 -0.000000 0.102443 0.340957 -0.340233
5.370000 -74.204309 583.627937 -0.000000 0.397371 0.274376 -0.101705 77.289763 13.549646 -0.000000 0.105701 0.350562 -0.340335
5.375000 -69.086398 596.431252 -0.000000 0.394459 0.264176 -0.101581 76.548108 14.630490 -0.000000 0.109449 0.359921 -0.340594
5.380000 -62.338172 611.787950 -0.000000 0.391051 0.254161 -0.101435 75.431207 14.796239 -0.000000 0.113785 0.369413 -0.340725
5.385000 -54.309273 630.150992 -0.000000 0.387066 0.244346 -0.101333 73.740769 14.148936 -0.000000 0.118654 0.378695 -0.340874
5.390000 -44.718035 651.864624 -0.000000 0.382464 0.234878 -0.101106 71.298547 12.881179 -0.000000 0.123967 0.387917 -0.340970
5.395000 -33.401752 677.100489 -0.000000 0.377263 0.225653 -0.100857 67.949422 11.367124 -0.000000 0.129788 0.396874 -0.341057
5.400000 -20.228519 705.846860 -0.000000 0.371666 0.216697 -0.100692 63.586007 10.150165 -0.000000 0.136098 0.405683 -0.341080
5.405000 -5.020931 737.837887 -0.000000 0.365547 0.208014 -0.100388 58.181353 9.947939 -0.000000 0.142955 0.414191 -0.341162
5.410000 11.401490 772.483342 -0.000000 0.359109 0.199774 -0.100227 51.846429 11.676579 -0.000000 0.150070 0.422439 -0.341149
5.415000 29.285423 808.885729 -0.000000 0.352270 0.192249 -0.100055 44.929811 16.116297 -0.000000 0.157684 0.430400 -0.341218
5.420000 48.261342 845.881662 -0.000000 0.345112 0.184991 -0.099831 37.972213 23.840829 -0.000000 0.165468 0.437785 -0.341210
5.425000 68.770795 882.046359 -0.000000 0.337639 0.178225 -0.099616 31.623955 34.991982 -0.000000 0.173585 0.444860 -0.341095
5.430000 90.346237 915.790145 -0.000000 0.329974 0.171837 -0.099549 26.469963 49.324481 -0.000000 0.181996 0.451498 -0.341124
